<svg width="33" height="32" viewBox="0 0 33 32" fill="none" xmlns="http://www.w3.org/2000/svg">
<g clip-path="url(#clip0_134_6008)">
<path d="M21.3489 17.6948C21.692 18.046 21.6894 18.6062 21.3409 18.9511C21.2748 19.0163 19.6969 20.5504 17.1379 20.5504C14.5789 20.5504 13.001 19.0172 12.9348 18.9511C12.5846 18.6035 12.581 18.0388 12.9286 17.6877C13.2771 17.3374 13.8409 17.3338 14.1929 17.6814C14.234 17.7216 15.3366 18.7625 17.1379 18.7625C18.9392 18.7625 20.0417 17.7207 20.0882 17.6769C20.442 17.3356 21.0067 17.3428 21.3489 17.6948ZM14.0106 15.1894C14.7504 15.1894 15.3509 14.589 15.3509 13.8492C15.3509 13.1094 14.7504 12.5089 14.0106 12.5089C13.2708 12.5089 12.6704 13.1094 12.6704 13.8492C12.6704 14.589 13.2708 15.1894 14.0106 15.1894ZM20.2651 12.5089C19.5253 12.5089 18.9249 13.1094 18.9249 13.8492C18.9249 14.589 19.5253 15.1894 20.2651 15.1894C21.0049 15.1894 21.6054 14.589 21.6054 13.8492C21.6054 13.1094 21.0049 12.5089 20.2651 12.5089ZM27.8599 16.3867V22.3374C27.8599 24.8008 25.8558 26.8049 23.3924 26.8049H18.1055C11.8501 26.8049 6.8367 22.5233 6.44178 16.846C6.22734 13.7402 7.3594 10.7005 9.55026 8.50694C11.7429 6.3125 14.7889 5.17776 17.8848 5.38684C23.479 5.76658 27.8599 10.5977 27.8599 16.3867ZM26.0729 16.3867C26.0729 11.5341 22.4229 7.48567 17.7642 7.16937C17.5596 7.15507 17.355 7.14882 17.1504 7.14882C14.7772 7.14882 12.4961 8.08521 10.8146 9.76946C8.98915 11.5976 8.04472 14.1324 8.2252 16.7227C8.55759 21.5297 12.7133 25.0188 18.1055 25.0188H23.3924C24.8702 25.0188 26.0729 23.8162 26.0729 22.3383V16.3867Z" fill="black"/>
</g>
<defs>
<clipPath id="clip0_134_6008">
<rect width="21.444" height="21.444" fill="white" transform="translate(6.41602 5.36133)"/>
</clipPath>
</defs>
</svg>
