<svg width="33" height="32" viewBox="0 0 33 32" fill="none" xmlns="http://www.w3.org/2000/svg">
<path d="M24.7516 6.0939C22.0665 3.30203 17.694 3.30203 15.0118 6.0939L7.57218 13.8234C7.52373 13.8738 7.49807 13.9419 7.49807 14.0131C7.49807 14.0842 7.52373 14.1524 7.57218 14.2028L8.62399 15.2964C8.67206 15.3461 8.73714 15.3741 8.80499 15.3741C8.87283 15.3741 8.93791 15.3461 8.98599 15.2964L16.4256 7.56689C17.3491 6.60663 18.5776 6.07908 19.8831 6.07908C21.1886 6.07908 22.4171 6.60663 23.3378 7.56689C24.2613 8.52715 24.7687 9.80453 24.7687 11.159C24.7687 12.5164 24.2613 13.7908 23.3378 14.751L15.7557 22.6317L14.5272 23.9091C13.3785 25.1035 11.5115 25.1035 10.3627 23.9091C9.80691 23.3311 9.50191 22.5635 9.50191 21.7455C9.50191 20.9275 9.80691 20.1599 10.3627 19.582L17.885 11.7636C18.076 11.568 18.3268 11.4583 18.5947 11.4583H18.5976C18.8655 11.4583 19.1135 11.568 19.3016 11.7636C19.4926 11.9621 19.5952 12.223 19.5952 12.5016C19.5952 12.7772 19.4898 13.038 19.3016 13.2336L13.1533 19.6205C13.1048 19.6709 13.0792 19.7391 13.0792 19.8102C13.0792 19.8813 13.1048 19.9495 13.1533 19.9999L14.2051 21.0935C14.2532 21.1433 14.3183 21.1712 14.3861 21.1712C14.4539 21.1712 14.519 21.1433 14.5671 21.0935L20.7126 14.7036C21.2798 14.1138 21.5905 13.3314 21.5905 12.4986C21.5905 11.6658 21.277 10.8804 20.7126 10.2935C19.5411 9.07544 17.637 9.0784 16.4655 10.2935L15.7358 11.0552L8.94608 18.1119C8.48526 18.5883 8.11997 19.155 7.87141 19.7793C7.62284 20.4035 7.49594 21.0729 7.49807 21.7485C7.49807 23.1207 8.014 24.4099 8.94608 25.3791C9.91237 26.3808 11.178 26.8817 12.4435 26.8817C13.7091 26.8817 14.9747 26.3808 15.9381 25.3791L24.7516 16.2211C26.0486 14.8696 26.7669 13.0706 26.7669 11.159C26.7697 9.24438 26.0514 7.44537 24.7516 6.0939Z" fill="black"/>
</svg>
