<svg width="33" height="32" viewBox="0 0 33 32" fill="none" xmlns="http://www.w3.org/2000/svg">
<g clip-path="url(#clip0_134_6028)">
<path d="M22.4928 6H10.3402C9.18954 6.00138 8.08639 6.45909 7.27274 7.27274C6.45909 8.08639 6.00138 9.18954 6 10.3402L6 22.4928C6.00138 23.6435 6.45909 24.7466 7.27274 25.5603C8.08639 26.3739 9.18954 26.8316 10.3402 26.833H22.4928C23.6435 26.8316 24.7466 26.3739 25.5603 25.5603C26.3739 24.7466 26.8316 23.6435 26.833 22.4928V10.3402C26.8316 9.18954 26.3739 8.08639 25.5603 7.27274C24.7466 6.45909 23.6435 6.00138 22.4928 6ZM10.3402 7.73608H22.4928C23.1835 7.73608 23.8458 8.01045 24.3342 8.49881C24.8226 8.98718 25.0969 9.64955 25.0969 10.3402V22.4928C25.0954 22.8795 25.0064 23.2608 24.8365 23.6082L16.8826 15.6544C16.4796 15.2512 16.0011 14.9314 15.4744 14.7132C14.9478 14.495 14.3833 14.3827 13.8132 14.3827C13.2432 14.3827 12.6787 14.495 12.1521 14.7132C11.6254 14.9314 11.1469 15.2512 10.7438 15.6544L7.73608 18.6613V10.3402C7.73608 9.64955 8.01045 8.98718 8.49881 8.49881C8.98718 8.01045 9.64955 7.73608 10.3402 7.73608ZM10.3402 25.0969C9.64955 25.0969 8.98718 24.8226 8.49881 24.3342C8.01045 23.8458 7.73608 23.1835 7.73608 22.4928V21.1161L11.9704 16.8818C12.2122 16.6398 12.4994 16.4478 12.8154 16.3168C13.1315 16.1859 13.4703 16.1185 13.8124 16.1185C14.1545 16.1185 14.4933 16.1859 14.8093 16.3168C15.1254 16.4478 15.4125 16.6398 15.6544 16.8818L23.6082 24.8365C23.2608 25.0064 22.8795 25.0954 22.4928 25.0969H10.3402Z" fill="black"/>
<path d="M19.8897 15.1144C20.4906 15.1144 21.078 14.9362 21.5776 14.6024C22.0772 14.2685 22.4666 13.794 22.6966 13.2389C22.9265 12.6837 22.9867 12.0729 22.8695 11.4835C22.7523 10.8942 22.4629 10.3528 22.038 9.92794C21.6131 9.50305 21.0718 9.21369 20.4824 9.09646C19.8931 8.97924 19.2822 9.0394 18.7271 9.26935C18.1719 9.4993 17.6974 9.88871 17.3636 10.3883C17.0297 10.888 16.8516 11.4753 16.8516 12.0762C16.8516 12.882 17.1717 13.6548 17.7414 14.2245C18.3112 14.7943 19.0839 15.1144 19.8897 15.1144ZM19.8897 10.7742C20.1472 10.7742 20.399 10.8505 20.6131 10.9936C20.8272 11.1367 20.9941 11.34 21.0927 11.578C21.1912 11.8159 21.217 12.0777 21.1668 12.3303C21.1165 12.5828 20.9925 12.8148 20.8104 12.9969C20.6283 13.179 20.3963 13.303 20.1437 13.3533C19.8912 13.4035 19.6294 13.3777 19.3914 13.2792C19.1535 13.1806 18.9502 13.0137 18.8071 12.7996C18.664 12.5855 18.5876 12.3338 18.5876 12.0762C18.5876 11.7309 18.7248 11.3997 18.969 11.1555C19.2132 10.9114 19.5444 10.7742 19.8897 10.7742Z" fill="black"/>
</g>
<defs>
<clipPath id="clip0_134_6028">
<rect width="20.833" height="20.833" fill="white" transform="translate(6 6)"/>
</clipPath>
</defs>
</svg>
