<svg width="20" height="21" viewBox="0 0 20 21" fill="none" xmlns="http://www.w3.org/2000/svg">
<path d="M15.026 6.67155C15.026 6.9271 14.9245 7.17218 14.7438 7.35288C14.5631 7.53358 14.318 7.63509 14.0625 7.63509C13.807 7.63509 13.5619 7.53358 13.3812 7.35288C13.2005 7.17218 13.099 6.9271 13.099 6.67155C13.099 6.416 13.2005 6.17092 13.3812 5.99022C13.5619 5.80952 13.807 5.70801 14.0625 5.70801C14.318 5.70801 14.5631 5.80952 14.7438 5.99022C14.9245 6.17092 15.026 6.416 15.026 6.67155ZM12.6172 2.81738C9.65333 2.81738 7.31771 5.15301 7.31771 8.11686C7.31771 8.49939 7.35625 8.88384 7.43526 9.24902C7.49115 9.50918 7.42755 9.73465 7.29844 9.86376L2.92396 14.2382C2.78948 14.3726 2.68281 14.5321 2.61006 14.7077C2.53732 14.8832 2.49991 15.0715 2.5 15.2615V16.7887C2.5 17.1721 2.65227 17.5397 2.92332 17.8107C3.19437 18.0818 3.56199 18.234 3.94531 18.234H5.8724C6.25572 18.234 6.62334 18.0818 6.89439 17.8107C7.16544 17.5397 7.31771 17.1721 7.31771 16.7887V16.307H8.28125C8.5368 16.307 8.78188 16.2055 8.96258 16.0248C9.14328 15.8441 9.24479 15.599 9.24479 15.3434V14.3799H10.2083C10.4639 14.3799 10.709 14.2784 10.8897 14.0977C11.0704 13.917 11.1719 13.6719 11.1719 13.4163V13.2429C11.6469 13.372 12.1422 13.4163 12.6172 13.4163C15.581 13.4163 17.9167 11.0807 17.9167 8.11686C17.9167 5.15301 15.581 2.81738 12.6172 2.81738ZM8.28125 8.11686C8.28125 5.68488 10.1852 3.78092 12.6172 3.78092C15.0492 3.78092 16.9531 5.68488 16.9531 8.11686C16.9531 10.5488 15.0492 12.4528 12.6172 12.4528C11.9813 12.4528 11.3906 12.3613 10.9059 12.1185C10.8325 12.0816 10.7508 12.0642 10.6688 12.0679C10.5867 12.0715 10.5069 12.0961 10.437 12.1392C10.3671 12.1824 10.3094 12.2427 10.2694 12.3145C10.2293 12.3862 10.2083 12.467 10.2083 12.5492V13.4163H9.24479C8.98924 13.4163 8.74416 13.5179 8.56347 13.6986C8.38277 13.8793 8.28125 14.1243 8.28125 14.3799V15.3434H7.31771C7.06216 15.3434 6.81708 15.4449 6.63638 15.6256C6.45568 15.8063 6.35417 16.0514 6.35417 16.307V16.7887C6.35417 16.9165 6.30341 17.0391 6.21306 17.1294C6.12271 17.2197 6.00017 17.2705 5.8724 17.2705H3.94531C3.81754 17.2705 3.695 17.2197 3.60465 17.1294C3.5143 17.0391 3.46354 16.9165 3.46354 16.7887V15.2606C3.46357 15.133 3.51416 15.0107 3.60422 14.9204L7.97966 10.545C8.39591 10.1287 8.48263 9.53905 8.37664 9.04572C8.31236 8.7403 8.28039 8.42897 8.28125 8.11686Z" fill="black"/>
</svg>
