<svg width="41" height="40" viewBox="0 0 41 40" fill="none" xmlns="http://www.w3.org/2000/svg">
<rect x="0.832031" width="40" height="40" rx="20" fill="#FAAC1E"/>
<g clip-path="url(#clip0_134_6013)">
<path d="M29.3372 11.6611C29.0683 11.3889 28.7338 11.1907 28.3659 11.0856C27.9981 10.9805 27.6093 10.972 27.2372 11.0611L15.2372 13.5886C14.5462 13.6833 13.8953 13.9692 13.3579 14.4139C12.8205 14.8586 12.4179 15.4445 12.1955 16.1056C11.9731 16.7667 11.9397 17.4768 12.0991 18.1559C12.2584 18.835 12.6042 19.4561 13.0975 19.9493L14.386 21.2371C14.4557 21.3068 14.511 21.3896 14.5487 21.4807C14.5865 21.5718 14.6058 21.6694 14.6057 21.7681V24.1441C14.6074 24.4781 14.6843 24.8075 14.8307 25.1078L14.8247 25.1131L14.8442 25.1326C15.064 25.5744 15.4229 25.9317 15.8657 26.1496L15.8852 26.1691L15.8905 26.1631C16.1908 26.3095 16.5202 26.3864 16.8542 26.3881H19.2302C19.429 26.3879 19.6198 26.4667 19.7605 26.6071L21.0482 27.8948C21.3936 28.244 21.8047 28.5214 22.2578 28.711C22.7109 28.9006 23.1971 28.9987 23.6882 28.9996C24.0976 28.999 24.5041 28.9322 24.892 28.8016C25.5471 28.5864 26.129 28.1926 26.5722 27.6643C27.0153 27.1361 27.302 26.4946 27.4 25.8121L29.9312 13.7858C30.0249 13.4105 30.0194 13.0174 29.9152 12.6449C29.8111 12.2724 29.6119 11.9334 29.3372 11.6611ZM15.448 20.1781L14.1587 18.8903C13.8585 18.5973 13.6481 18.2248 13.5522 17.8164C13.4563 17.4081 13.4789 16.9808 13.6172 16.5848C13.7514 16.1785 13.9994 15.8194 14.3318 15.55C14.6642 15.2806 15.067 15.1124 15.4922 15.0653L27.373 12.5641L16.1042 23.8343V21.7681C16.1054 21.4728 16.048 21.1803 15.9353 20.9073C15.8227 20.6344 15.657 20.3865 15.448 20.1781ZM25.9262 25.5556C25.8687 25.9698 25.6968 26.3598 25.4298 26.6818C25.1629 27.0038 24.8115 27.245 24.4151 27.3783C24.0187 27.5117 23.593 27.5319 23.1857 27.4367C22.7784 27.3416 22.4058 27.1348 22.1095 26.8396L20.8195 25.5496C20.6113 25.3402 20.3636 25.1742 20.0908 25.0612C19.818 24.9481 19.5255 24.8903 19.2302 24.8911H17.164L28.4342 13.6246L25.9262 25.5556Z" fill="white"/>
</g>
<defs>
<clipPath id="clip0_134_6013">
<rect width="18" height="18" fill="white" transform="translate(11.998 11)"/>
</clipPath>
</defs>
</svg>
